<?xml version="1.0" encoding="UTF-8"?>
<svg version="1.1" xmlns="http://www.w3.org/2000/svg" width="192" height="192">
<path d="M0 0 C63.36 0 126.72 0 192 0 C192 63.36 192 126.72 192 192 C128.64 192 65.28 192 0 192 C0 128.64 0 65.28 0 0 Z " fill="#E9B208" transform="translate(0,0)"/>
<path d="M0 0 C8.58 0 17.16 0 26 0 C30.64887637 9.19209646 34.95423791 18.42235968 38.89160156 27.93798828 C41.9179303 35.24535505 45.07813492 42.4042056 48.69921875 49.44140625 C50.24485513 52.48162195 51.63273785 55.57060169 52.98828125 58.69921875 C53.75432183 60.44129558 54.54839977 62.17107846 55.35546875 63.89453125 C55.81566406 64.87808594 56.27585937 65.86164063 56.75 66.875 C57.17796875 67.77992187 57.6059375 68.68484375 58.046875 69.6171875 C59 72 59 72 59 75 C53.06 75 47.12 75 41 75 C35 62.25 35 62.25 35 60 C20.48 60 5.96 60 -9 60 C-9.99 62.97 -10.98 65.94 -12 69 C-12.99 70.98 -13.98 72.96 -15 75 C-20.94 75 -26.88 75 -33 75 C-30.63399449 67.34097186 -27.50656656 60.16535793 -24.1875 52.875 C-23.61825801 51.61663339 -23.0494187 50.35808454 -22.48095703 49.09936523 C-21.28201461 46.44624948 -20.08058381 43.79428005 -18.87744141 41.14306641 C-16.95532477 36.90520116 -15.04535131 32.66192011 -13.13671875 28.41796875 C-12.19009293 26.31479836 -11.24325635 24.21172303 -10.29629517 22.10870361 C-9.68668536 20.75475556 -9.07728674 19.40071239 -8.46810913 18.04656982 C-7.61281663 16.14635878 -6.75585523 14.24690912 -5.8984375 12.34765625 C-5.41036621 11.26492432 -4.92229492 10.18219238 -4.41943359 9.06665039 C-3.0071772 6.01550617 -1.50359231 3.00718462 0 0 Z " fill="#161B26" transform="translate(45,58)"/>
<path d="M0 0 C5.61 0 11.22 0 17 0 C17.09936531 7.7738071 17.17170448 15.54723906 17.21972656 23.3215332 C17.23975996 25.96254929 17.26699451 28.60352149 17.30175781 31.24438477 C17.350639 35.05496091 17.37305267 38.86494721 17.390625 42.67578125 C17.41127014 43.84393875 17.43191528 45.01209625 17.45318604 46.21565247 C17.45554381 54.95872883 16.34974028 63.16005383 10.4375 69.9375 C1.70261346 75.90777343 -8.026151 76.66794936 -18.26977539 76.57641602 C-20.43206668 76.56253488 -22.59002363 76.59675098 -24.75195312 76.63476562 C-33.48408741 76.6845733 -41.42557304 75.77076537 -49 71 C-54.88071395 64.56308601 -56.3255783 58.62782508 -56 50 C-55.67 49.34 -55.34 48.68 -55 48 C-49.72 48 -44.44 48 -39 48 C-38.54427083 50.5390625 -38.08854167 53.078125 -37.6328125 55.6171875 C-37.16955297 58.16505988 -37.16955297 58.16505988 -35 60 C-30.08145027 61.66776876 -24.75579577 61.2646381 -19.625 61.3125 C-18.59632813 61.34150391 -17.56765625 61.37050781 -16.5078125 61.40039062 C-10.38566192 61.45167153 -6.5762481 61.24718679 -2 57 C-0.99314613 53.97943839 -0.84627314 51.86445386 -0.79467773 48.70239258 C-0.77473251 47.62149857 -0.75478729 46.54060455 -0.73423767 45.42695618 C-0.71752518 44.26125595 -0.70081268 43.09555573 -0.68359375 41.89453125 C-0.66281265 40.70018967 -0.64203156 39.50584808 -0.62062073 38.27531433 C-0.55515724 34.45443557 -0.4962549 30.63348724 -0.4375 26.8125 C-0.39431176 24.22460214 -0.35069737 21.63671135 -0.30664062 19.04882812 C-0.19947905 12.69929032 -0.09820236 6.34968244 0 0 Z " fill="#161B26" transform="translate(164,58)"/>
<path d="M0 0 C3 1 3 1 4.31860352 3.20556641 C4.75100342 4.16124512 5.18340332 5.11692383 5.62890625 6.1015625 C6.10650391 7.14957031 6.58410156 8.19757813 7.07617188 9.27734375 C7.56666016 10.38207031 8.05714844 11.48679687 8.5625 12.625 C9.05685547 13.70652344 9.55121094 14.78804687 10.06054688 15.90234375 C12.49409995 21.29633555 14.35926691 26.25743417 16 32 C6.1 32 -3.8 32 -14 32 C-10.62444902 21.87334705 -10.62444902 21.87334705 -9.0625 18.61328125 C-8.72476563 17.90236328 -8.38703125 17.19144531 -8.0390625 16.45898438 C-7.69617187 15.75064453 -7.35328125 15.04230469 -7 14.3125 C-6.48566406 13.23258789 -6.48566406 13.23258789 -5.9609375 12.13085938 C-4.01861012 8.06457477 -2.02801868 4.02434957 0 0 Z " fill="#E1AC09" transform="translate(57,72)"/>
<path d="M0 0 C0.33 0 0.66 0 1 0 C1 3.63 1 7.26 1 11 C-2.63 11 -6.26 11 -10 11 C-9.01 10.01 -8.02 9.02 -7 8 C-6.34 8 -5.68 8 -5 8 C-4.67 7.01 -4.34 6.02 -4 5 C-3.34 5 -2.68 5 -2 5 C-1.34 3.35 -0.68 1.7 0 0 Z " fill="#000000" transform="translate(191,181)"/>
<path d="M0 0 C0.99 0.99 1.98 1.98 3 3 C3 3.66 3 4.32 3 5 C3.99 5.33 4.98 5.66 6 6 C6 6.66 6 7.32 6 8 C8.475 8.99 8.475 8.99 11 10 C11 10.33 11 10.66 11 11 C7.37 11 3.74 11 0 11 C0 7.37 0 3.74 0 0 Z " fill="#000000" transform="translate(0,181)"/>
<path d="M0 0 C3.63 0 7.26 0 11 0 C11 3.63 11 7.26 11 11 C10.01 10.01 9.02 9.02 8 8 C8 7.34 8 6.68 8 6 C7.01 5.67 6.02 5.34 5 5 C5 4.34 5 3.68 5 3 C2.525 2.01 2.525 2.01 0 1 C0 0.67 0 0.34 0 0 Z " fill="#000000" transform="translate(181,0)"/>
<path d="M0 0 C3.63 0 7.26 0 11 0 C9.515 1.485 9.515 1.485 8 3 C7.34 3 6.68 3 6 3 C5.67 3.99 5.34 4.98 5 6 C4.34 6 3.68 6 3 6 C2.34 7.65 1.68 9.3 1 11 C0.67 11 0.34 11 0 11 C0 7.37 0 3.74 0 0 Z " fill="#000000" transform="translate(0,0)"/>
</svg>
